<svg width="100" height="100" viewBox="0 0 100 100" fill="none" xmlns="http://www.w3.org/2000/svg">
<path d="M0.5 12C0.5 5.64873 5.64873 0.5 12 0.5H88C94.3513 0.5 99.5 5.64873 99.5 12V88C99.5 94.3513 94.3513 99.5 88 99.5H12C5.64873 99.5 0.5 94.3513 0.5 88V12Z" fill="#F7F9FF"/>
<path d="M0.5 12C0.5 5.64873 5.64873 0.5 12 0.5H88C94.3513 0.5 99.5 5.64873 99.5 12V88C99.5 94.3513 94.3513 99.5 88 99.5H12C5.64873 99.5 0.5 94.3513 0.5 88V12Z" stroke="#C1BCBC"/>
<path d="M50 50V62" stroke="#141B34" stroke-width="3" stroke-linecap="round"/>
<path d="M50 62C46.6527 62 43.7394 64.0241 42.2353 67.0099C41.5169 68.436 42.5478 70 43.9175 70H56.0825C57.4522 70 58.4831 68.436 57.7647 67.0099C56.2606 64.0241 53.3473 62 50 62Z" stroke="#141B34" stroke-width="3" stroke-linecap="round"/>
<path d="M36 36H33.9694C31.9964 36 31.0099 36 30.4003 36.7411C29.7908 37.4821 29.9696 38.3119 30.327 39.9716C31.0099 43.1417 32.491 45.9268 34.4978 48" stroke="#141B34" stroke-width="3" stroke-linecap="round"/>
<path d="M64 36H66.0306C68.0036 36 68.9901 36 69.5997 36.7411C70.2092 37.4821 70.0304 38.3119 69.673 39.9716C68.9901 43.1417 67.509 45.9268 65.5022 48" stroke="#141B34" stroke-width="3" stroke-linecap="round"/>
<path d="M50 50C57.732 50 64 43.7662 64 36.0764C64 35.8748 63.9957 35.6741 63.9872 35.4746C63.9017 33.4761 63.859 32.4769 62.5046 31.2384C61.1502 30 59.6495 30 56.6481 30H43.3519C40.3505 30 38.8498 30 37.4954 31.2384C36.141 32.4769 36.0983 33.4761 36.0128 35.4746C36.0043 35.6741 36 35.8748 36 36.0764C36 43.7662 42.268 50 50 50Z" stroke="#141B34" stroke-width="3" stroke-linecap="round"/>
</svg>
